<svg width="500" height="500" viewBox="0 0 500 500" fill="none" xmlns="http://www.w3.org/2000/svg">
<rect width="500" height="500" rx="100" fill="#EEE"/>
<path d="M188 435C222.224 435 250 407.299 250 373.167V311.333H188C153.776 311.333 126 339.035 126 373.167C126 407.299 153.776 435 188 435Z" fill="#0ACF83"/>
<path d="M126 249.5C126 215.368 153.776 187.667 188 187.667H250V311.333H188C153.776 311.333 126 283.632 126 249.5Z" fill="#A259FF"/>
<path d="M126 125.833C126 91.7013 153.776 64 188 64H250V187.667H188C153.776 187.667 126 159.965 126 125.833Z" fill="#F24E1E"/>
<path d="M250 64H312C346.224 64 374 91.7013 374 125.833C374 159.965 346.224 187.667 312 187.667L250 187.667V64Z" fill="#FF7262"/>
<path d="M374 249.5C374 283.632 346.224 311.333 312 311.333C277.776 311.333 250 283.632 250 249.5C250 215.368 277.776 187.667 312 187.667C346.224 187.667 374 215.368 374 249.5Z" fill="#1ABCFE"/>
</svg>
