<svg width="500" height="500" viewBox="0 0 500 500" fill="none" xmlns="http://www.w3.org/2000/svg">
<rect width="500" height="500" rx="100" fill="#222222"/>
<path d="M386.907 111.013C351.756 60.7768 282.33 45.8865 232.136 77.8203L143.999 133.926C132.086 141.405 121.868 151.284 113.997 162.932C106.126 174.58 100.776 187.74 98.2897 201.57C94.0856 224.862 97.7822 248.89 108.794 269.848C101.247 281.278 96.0997 294.118 93.6626 307.591C91.1521 321.698 91.4876 336.164 94.6495 350.14C97.8115 364.116 103.736 377.321 112.076 388.981C147.227 439.224 216.656 454.117 266.844 422.174L355.001 366.068C366.911 358.588 377.126 348.708 384.993 337.06C392.861 325.412 398.207 312.253 400.69 298.424C404.901 275.133 401.214 251.105 390.212 230.142C397.754 218.712 402.898 205.874 405.334 192.403C407.848 178.296 407.514 163.83 404.353 149.853C401.191 135.877 395.266 122.672 386.924 111.013" fill="#FF3E00"/>
<path d="M223.524 393.709C209.651 397.31 195.005 396.573 181.565 391.598C168.124 386.623 156.536 377.65 148.366 365.889C143.351 358.879 139.789 350.939 137.887 342.536C135.986 334.133 135.784 325.435 137.293 316.952C137.804 314.168 138.508 311.422 139.399 308.734L141.059 303.672L145.577 306.983C156.004 314.638 167.663 320.459 180.052 324.195L183.327 325.187L183.026 328.454C182.629 333.097 183.889 337.73 186.585 341.532C189.046 345.078 192.537 347.783 196.587 349.283C200.637 350.783 205.05 351.005 209.231 349.919C211.143 349.411 212.967 348.614 214.638 347.557L302.792 291.445C304.95 290.088 306.8 288.298 308.227 286.189C309.653 284.079 310.623 281.695 311.076 279.19C311.528 276.633 311.466 274.012 310.893 271.479C310.319 268.946 309.246 266.553 307.737 264.438C305.276 260.893 301.785 258.187 297.736 256.686C293.686 255.185 289.273 254.961 285.092 256.045C283.179 256.553 281.356 257.35 279.684 258.407L246.044 279.821C240.508 283.333 234.467 285.981 228.131 287.671C214.258 291.273 199.612 290.536 186.171 285.561C172.731 280.586 161.143 271.612 152.973 259.852C147.957 252.842 144.393 244.902 142.491 236.499C140.589 228.095 140.387 219.397 141.897 210.915C143.395 202.598 146.615 194.686 151.35 187.683C156.086 180.68 162.233 174.742 169.399 170.247L257.563 114.145C263.097 110.628 269.138 107.977 275.476 106.285C289.349 102.684 303.995 103.42 317.435 108.395C330.876 113.37 342.464 122.344 350.634 134.104C355.649 141.114 359.212 149.054 361.114 157.457C363.016 165.861 363.219 174.559 361.71 183.041C361.195 185.825 360.49 188.571 359.601 191.259L357.941 196.322L353.426 193.017C343 185.361 331.341 179.54 318.951 175.805L315.673 174.813L315.977 171.546C316.374 166.901 315.115 162.266 312.421 158.458C309.961 154.913 306.47 152.208 302.42 150.708C298.37 149.208 293.957 148.986 289.776 150.071C287.864 150.579 286.04 151.376 284.368 152.434L196.191 208.549C194.034 209.904 192.184 211.693 190.758 213.803C189.333 215.912 188.364 218.295 187.914 220.8C187.459 223.357 187.52 225.979 188.092 228.513C188.664 231.046 189.737 233.44 191.246 235.555C193.707 239.1 197.198 241.805 201.248 243.306C205.297 244.807 209.71 245.032 213.891 243.949C215.804 243.44 217.627 242.643 219.299 241.586L252.936 220.182C258.469 216.664 264.511 214.014 270.849 212.326C284.722 208.724 299.367 209.461 312.807 214.436C326.247 219.411 337.834 228.385 346.004 240.145C351.02 247.155 354.583 255.095 356.485 263.498C358.387 271.902 358.589 280.6 357.08 289.082C355.584 297.398 352.368 305.312 347.637 312.317C342.906 319.321 336.763 325.264 329.601 329.764L241.437 385.849C235.903 389.366 229.862 392.017 223.524 393.709Z" fill="white"/>
</svg>
