<svg width="500" height="500" viewBox="0 0 500 500" fill="none" xmlns="http://www.w3.org/2000/svg">
<rect width="500" height="500" rx="100" fill="#0B1120"/>
<mask id="mask0_19_53" style="mask-type:luminance" maskUnits="userSpaceOnUse" x="80" y="148" width="340" height="204">
<path d="M80 148H420V352H80V148Z" fill="white"/>
</mask>
<g mask="url(#mask0_19_53)">
<path fill-rule="evenodd" clip-rule="evenodd" d="M250 148C204.667 148 176.333 170.667 165 216C182 193.333 201.833 184.833 224.5 190.5C237.433 193.73 246.676 203.118 256.907 213.5C273.573 230.419 292.865 250 335 250C380.333 250 408.667 227.333 420 182C403 204.667 383.167 213.167 360.5 207.5C347.567 204.27 338.324 194.882 328.093 184.5C311.427 167.581 292.135 148 250 148ZM165 250C119.667 250 91.3333 272.667 80 318C97 295.333 116.833 286.833 139.5 292.5C152.433 295.736 161.676 305.118 171.907 315.5C188.573 332.419 207.865 352 250 352C295.333 352 323.667 329.333 335 284C318 306.667 298.167 315.167 275.5 309.5C262.567 306.27 253.324 296.882 243.093 286.5C226.427 269.581 207.135 250 165 250Z" fill="#38BDF8"/>
</g>
</svg>
