<svg width="500" height="500" viewBox="0 0 500 500" fill="none" xmlns="http://www.w3.org/2000/svg">
<g clip-path="url(#clip0_19_57)">
<rect width="500" height="500" rx="100" fill="#3178C6"/>
<path d="M451.172 0H48.8281C21.8611 0 0 21.8611 0 48.8281V451.172C0 478.139 21.8611 500 48.8281 500H451.172C478.139 500 500 478.139 500 451.172V48.8281C500 21.8611 478.139 0 451.172 0Z" fill="#3178C6"/>
<path fill-rule="evenodd" clip-rule="evenodd" d="M309.511 397.875V446.763C317.458 450.837 326.857 453.892 337.709 455.929C348.561 457.966 359.997 458.984 372.021 458.984C383.738 458.984 394.869 457.864 405.415 455.623C415.961 453.383 425.208 449.69 433.155 444.547C441.103 439.404 447.395 432.682 452.03 424.381C456.666 416.08 458.984 405.819 458.984 393.598C458.984 384.736 457.66 376.971 455.011 370.3C452.361 363.629 448.541 357.696 443.548 352.502C438.556 347.308 432.569 342.647 425.59 338.522C418.61 334.397 410.739 330.502 401.977 326.836C395.558 324.187 389.801 321.616 384.706 319.121C379.611 316.625 375.281 314.079 371.715 311.482C368.148 308.885 365.397 306.135 363.462 303.232C361.526 300.329 360.558 297.045 360.558 293.378C360.558 290.018 361.424 286.987 363.156 284.288C364.889 281.589 367.334 279.272 370.492 277.337C373.651 275.402 377.522 273.899 382.107 272.83C386.693 271.761 391.787 271.227 397.392 271.227C401.467 271.227 405.771 271.532 410.306 272.143C414.84 272.754 419.399 273.696 423.985 274.969C428.57 276.242 433.027 277.847 437.358 279.781C441.688 281.717 445.687 283.957 449.355 286.504V240.824C441.918 237.973 433.792 235.859 424.979 234.484C416.165 233.109 406.052 232.422 394.641 232.422C383.024 232.422 372.021 233.67 361.628 236.165C351.235 238.66 342.091 242.556 334.193 247.852C326.297 253.148 320.057 259.895 315.472 268.095C310.887 276.293 308.594 286.096 308.594 297.503C308.594 312.067 312.797 324.493 321.203 334.78C329.608 345.066 342.37 353.774 359.488 360.904C366.213 363.654 372.479 366.353 378.287 369.001C384.095 371.649 389.113 374.399 393.341 377.251C397.569 380.103 400.906 383.209 403.353 386.57C405.798 389.931 407.021 393.75 407.021 398.028C407.021 401.186 406.256 404.113 404.728 406.812C403.199 409.512 400.881 411.854 397.773 413.84C394.666 415.826 390.794 417.379 386.158 418.499C381.521 419.62 376.097 420.18 369.881 420.18C359.284 420.18 348.79 418.321 338.396 414.603C328.004 410.887 318.375 405.311 309.511 397.875ZM227.324 277.424H290.039V237.305H115.234V277.424H177.643V456.055H227.324V277.424Z" fill="white"/>
</g>
<defs>
<clipPath id="clip0_19_57">
<rect width="500" height="500" rx="100" fill="white"/>
</clipPath>
</defs>
</svg>
